<svg id="Layer_1" data-name="Layer 1" xmlns="http://www.w3.org/2000/svg" viewBox="0 0 150 56"><title>jason&amp;apos;s_deli_icons</title><g id="_Group_" data-name="&lt;Group&gt;"><path id="_Compound_Path_" data-name="&lt;Compound Path&gt;" d="M128.214,8.247C114.222,2.966,95.323.057,75,.057S35.773,2.966,21.781,8.247C7.9,13.489.249,20.524,0.249,28.057S7.9,42.625,21.781,47.866C35.773,53.148,54.672,56.057,75,56.057s39.224-2.909,53.216-8.191c13.885-5.242,21.532-12.277,21.532-19.809S142.1,13.489,128.214,8.247ZM75,53.769c-18.944,0-37-2.68-50.829-7.546C10.219,41.317,2.538,34.865,2.538,28.057S10.219,14.8,24.168,9.891C38,5.026,56.054,2.346,75,2.346s36.995,2.68,50.829,7.545c13.948,4.906,21.63,11.358,21.63,18.166s-7.682,13.26-21.63,18.166C111.992,51.089,93.941,53.769,75,53.769Z" fill="#fdb827"/><path id="_Path_" data-name="&lt;Path&gt;" d="M125.827,9.891C111.992,5.026,93.941,2.346,75,2.346S38,5.026,24.168,9.891C10.219,14.8,2.538,21.249,2.538,28.057s7.682,13.26,21.63,18.166C38,51.089,56.054,53.769,75,53.769s36.995-2.68,50.829-7.546c13.948-4.906,21.63-11.358,21.63-18.166S139.775,14.8,125.827,9.891Z" fill="#bf311a"/><g id="_Group_2" data-name="&lt;Group&gt;"><path id="_Compound_Path_2" data-name="&lt;Compound Path&gt;" d="M35.831,30.316a0.746,0.746,0,0,1-.537.377c-0.426,0-.448-0.432-0.448-1.212v-4.1c0-2.048-.044-3.233-1.277-4.284a6.063,6.063,0,0,0-4.055-1.078c-3.317,0-5.243,1.7-5.243,3.773A1.872,1.872,0,0,0,26.152,25.6a1.627,1.627,0,0,0,1.793-1.483V23.9a1.021,1.021,0,0,1,1.142-1.078c0.762,0,1.009.512,1.009,1.725v1c-4.168.35-6.431,2.156-6.431,4.608A3.6,3.6,0,0,0,27.5,33.98a5.745,5.745,0,0,0,3.383-1.24,3.921,3.921,0,0,0,2.689,1.265,4.038,4.038,0,0,0,3.383-1.886Zm-5.6.3a1.168,1.168,0,0,1-.829.4,1.115,1.115,0,0,1-1.076-1.294,1.946,1.946,0,0,1,1.905-1.913v2.8Z" fill="#fff"/><path id="_Path_2" data-name="&lt;Path&gt;" d="M37.673,34.006h1.636l0.247-1a4.957,4.957,0,0,0,3.047,1.1,5.131,5.131,0,0,0,5.266-5.308c0-2.884-1.411-3.557-4.212-4.177-1.457-.323-2.218-0.269-2.218-1.024,0-.538.471-0.835,1.389-0.835a2.6,2.6,0,0,1,2.353,1.724l1.995-.458-0.426-3.907h-1.5l-0.314.862a4.99,4.99,0,0,0-3-.97c-3.047,0-4.952,1.994-4.952,4.662a3.821,3.821,0,0,0,3.2,4.042c2.017,0.458,3.137.323,3.137,1.158,0,0.62-.56,1.051-1.569,1.051-1.187,0-2.017-.7-2.846-2.237l-2.129.7,0.9,4.607h0Z" fill="#fff" fill-rule="evenodd"/><path id="_Compound_Path_3" data-name="&lt;Compound Path&gt;" d="M60.57,25.845c-0.885-4.165-3.824-6.35-7.528-5.563-3.726.792-5.494,4.005-4.615,8.144s3.8,6.329,7.523,5.536C59.654,33.175,61.455,30.009,60.57,25.845Zm-5.2,5.376c-0.942.2-1.623-1.06-2.205-3.8s-0.474-4.17.468-4.37,1.623,1.059,2.206,3.8S56.31,31.021,55.367,31.221Z" fill="#fff"/><path id="_Path_3" data-name="&lt;Path&gt;" d="M60.768,33.738h6.7V31.151c-0.717,0-.852-0.378-0.852-1.321V24.037a1.872,1.872,0,0,1,1.255-.647c0.784,0,1.03.566,1.03,1.887V29.83c0,0.943-.112,1.321-0.829,1.321v2.587h6.7V31.1c-1.187-.026-1.254-0.4-1.254-1.724V25.061c0-3.342-1.054-4.931-3.585-4.931a5.465,5.465,0,0,0-3.54,1.374V20.264H64.779a10.444,10.444,0,0,1-4.011,1V23.9c1.187,0.027,1.232.4,1.232,1.725v3.746c0,1.32-.045,1.7-1.232,1.724v2.641h0Z" fill="#fff" fill-rule="evenodd"/><path id="_Path_4" data-name="&lt;Path&gt;" d="M74.968,20.372a4.753,4.753,0,0,1-.986,1.913l1.165,1.482a6.671,6.671,0,0,0,2.644-5.309c0-2.1-.941-3.342-2.442-3.342-1.412,0-2.33,1.159-2.33,2.937,0,1.455.694,2.318,1.9,2.318h0.045Z" fill="#fff" fill-rule="evenodd"/><path id="_Path_5" data-name="&lt;Path&gt;" d="M77.46,34.006H79.1l0.246-1a4.957,4.957,0,0,0,3.047,1.1,5.131,5.131,0,0,0,5.266-5.308c0-2.884-1.411-3.557-4.212-4.177-1.457-.323-2.219-0.269-2.219-1.024,0-.538.471-0.835,1.39-0.835a2.6,2.6,0,0,1,2.353,1.724l1.994-.458-0.426-3.907h-1.5l-0.314.862a4.991,4.991,0,0,0-3-.97c-3.047,0-4.952,1.994-4.952,4.662a3.821,3.821,0,0,0,3.2,4.042c2.017,0.458,3.137.323,3.137,1.158,0,0.62-.561,1.051-1.568,1.051-1.188,0-2.017-.7-2.845-2.237l-2.129.7,0.9,4.607h0Z" fill="#fff" fill-rule="evenodd"/><path id="_Path_6" data-name="&lt;Path&gt;" d="M118.793,15.71v2.64c1.187,0.027,1.255.4,1.255,1.725v9.3c0,1.32-.067,1.7-1.255,1.724v2.641h7.1V31.1c-1.187-.026-1.232-0.4-1.232-1.724V14.713H123.05a9.934,9.934,0,0,1-4.257,1h0Z" fill="#fff" fill-rule="evenodd"/><path id="_Compound_Path_4" data-name="&lt;Compound Path&gt;" d="M132.587,29.373V20.264H130.75a10.439,10.439,0,0,1-4.011,1V23.9c1.187,0.027,1.232.4,1.232,1.725v3.746c0,1.32-.045,1.7-1.232,1.724v2.641h7.1V31.1c-1.187-.026-1.255-0.4-1.255-1.724h0ZM128.2,17a2.215,2.215,0,1,0,4.392,0,2.212,2.212,0,1,0-4.392,0h0Z" fill="#fff" fill-rule="evenodd"/><path id="_Path_7" data-name="&lt;Path&gt;" d="M18.209,21.216V32.49c0,2.075-.044,2.9-0.651,2.9-0.456,0-.608-0.621-0.954-1.175a1.76,1.76,0,0,0-1.411-1c-0.933,0-1.714,1.211-1.714,2.663,0,1.971,1.367,3.423,3.732,3.423,3.753,0,5.446-2.351,5.446-7.469v-17.5H20.878a8.181,8.181,0,0,1-3.884,1.28V19c1.107,0.034,1.215.484,1.215,2.213h0Z" fill="#fff"/><path id="_Compound_Path_5" data-name="&lt;Compound Path&gt;" d="M105.093,29.373V14.713h-1.165a13.179,13.179,0,0,1-4.706,1v2.344c1.188,0.027,1.255.377,1.255,1.7v1.4A4.334,4.334,0,0,0,97.7,20.129c-2.89,0-5.042,2.722-5.042,6.737,0,4.23,2.263,7.114,5.132,7.114a3.85,3.85,0,0,0,2.891-1.186v0.943h5.714V31.1C105.16,31.07,105.093,30.72,105.093,29.373Zm-4.616,1.051a2.367,2.367,0,0,1-1.232.377c-1.165,0-1.725-1.267-1.725-3.826s0.561-3.826,1.725-3.826a2.364,2.364,0,0,1,1.232.377v6.9Z" fill="#fff"/><path id="_Compound_Path_6" data-name="&lt;Compound Path&gt;" d="M116.37,26.358c-0.112,1.861-.64,2.972-1.813,3.49-1.308.577-2.373-.083-3.079-1.95-0.056-.146-0.106-0.35-0.17-0.52l6.562-2.9a6.389,6.389,0,0,0-.216-0.64c-1.329-3.516-4.315-4.8-7.562-3.366-3.36,1.485-4.792,5.145-3.362,8.928s4.693,5.313,8.211,3.759c2.572-1.137,3.857-3.233,3.913-6.427ZM110.882,22.7c0.677-.3,1.289.138,1.748,1.351l0.083,0.218-2.21.977C110,23.91,110.183,23.008,110.882,22.7Z" fill="#fff"/><path id="_Compound_Path_7" data-name="&lt;Compound Path&gt;" d="M136.422,23.508a1.784,1.784,0,1,1,.523-1.265,1.723,1.723,0,0,1-.523,1.265h0Zm-2.353-2.349a1.478,1.478,0,0,0-.451,1.086,1.543,1.543,0,1,0,3.085,0,1.543,1.543,0,0,0-2.635-1.086h0Zm1.054,0.1a1.5,1.5,0,0,1,.537.071,0.488,0.488,0,0,1,.3.5,0.43,0.43,0,0,1-.191.387,0.752,0.752,0,0,1-.283.1,0.475,0.475,0,0,1,.336.191,0.535,0.535,0,0,1,.106.3v0.143c0,0.045,0,.093,0,0.145a0.332,0.332,0,0,0,.016.1l0.011,0.024h-0.317l-0.005-.019,0-.022-0.007-.063V22.958a0.473,0.473,0,0,0-.189-0.447,0.871,0.871,0,0,0-.394-0.063h-0.279v0.769h-0.334V21.259h0.689Zm0.374,0.314a0.924,0.924,0,0,0-.427-0.073h-0.3v0.708h0.319a0.983,0.983,0,0,0,.336-0.044,0.3,0.3,0,0,0,.207-0.305,0.294,0.294,0,0,0-.134-0.285h0Z" fill="#fff"/></g></g></svg>